<?xml version="1.0" encoding="iso-8859-1"?>
<!-- Generator: Adobe Illustrator 16.0.0, SVG Export Plug-In . SVG Version: 6.00 Build 0)  -->
<!DOCTYPE svg PUBLIC "-//W3C//DTD SVG 1.1//EN" "http://www.w3.org/Graphics/SVG/1.1/DTD/svg11.dtd">
<svg version="1.1" id="Capa_1" xmlns="http://www.w3.org/2000/svg" xmlns:xlink="http://www.w3.org/1999/xlink" x="0px" y="0px"
	 width="55px" height="55px" viewBox="0 0 55 55" style="enable-background:new 0 0 55 55;" xml:space="preserve">
<g>
	<g>
		<path d="M18.039,21.475c-3.417,2.43-5.143,4.825-4.99,6.928c0.064,0.896,0.453,1.672,0.942,2.313
			c2.364-5.705,9.267-9.591,20.548-11.542c0.545-0.091,1.062,0.271,1.156,0.814c0.094,0.545-0.271,1.063-0.814,1.156
			C24.108,23.01,17.658,26.588,15.707,31.78c-0.057,0.149-0.087,0.301-0.135,0.451c0.476,0.345,0.833,0.532,0.844,0.539
			c2.474,1.189,4.875,1.8,7.116,1.8c10.11,0,15.432-12.432,17.462-18.658c-2.682,1.748-5.686,1.748-8.814,1.748
			C28.064,17.66,23.404,17.66,18.039,21.475z"/>
		<path d="M27.5,0C12.337,0,0,12.337,0,27.5C0,42.663,12.337,55,27.5,55S55,42.663,55,27.5C55,12.337,42.663,0,27.5,0z
			 M43.936,12.875c-0.211,0.967-5.375,23.695-20.403,23.695c-2.544,0-5.237-0.676-8.006-2.01c-0.032-0.016-0.179-0.094-0.391-0.223
			c-0.507,5.721,3.801,11.129,3.851,11.191c0.348,0.429,0.282,1.059-0.146,1.406c-0.186,0.149-0.408,0.224-0.63,0.224
			c-0.29,0-0.578-0.126-0.775-0.369c-0.244-0.3-5.471-6.86-4.111-13.839c-1.06-1.014-2.131-2.493-2.27-4.404
			c-0.208-2.876,1.753-5.806,5.827-8.703c5.885-4.185,11.104-4.185,15.299-4.185c4.228,0,7.28,0,9.98-3.6
			c0.281-0.377,0.788-0.504,1.217-0.31C43.805,11.947,44.038,12.415,43.936,12.875z"/>
	</g>
</g>
<g>
</g>
<g>
</g>
<g>
</g>
<g>
</g>
<g>
</g>
<g>
</g>
<g>
</g>
<g>
</g>
<g>
</g>
<g>
</g>
<g>
</g>
<g>
</g>
<g>
</g>
<g>
</g>
<g>
</g>
</svg>
